<svg id="visual" viewBox="0 0 890 884" width="890" height="884" xmlns="http://www.w3.org/2000/svg" xmlns:xlink="http://www.w3.org/1999/xlink" version="1.1"><rect x="0" y="0" width="890" height="884" fill="#101010"></rect><path d="M0 186L18.5 185.5C37 185 74 184 111.2 194.3C148.3 204.7 185.7 226.3 222.8 229C260 231.7 297 215.3 334 202.8C371 190.3 408 181.7 445 194C482 206.3 519 239.7 556.2 258.2C593.3 276.7 630.7 280.3 667.8 271.8C705 263.3 742 242.7 779 241.2C816 239.7 853 257.3 871.5 266.2L890 275L890 0L871.5 0C853 0 816 0 779 0C742 0 705 0 667.8 0C630.7 0 593.3 0 556.2 0C519 0 482 0 445 0C408 0 371 0 334 0C297 0 260 0 222.8 0C185.7 0 148.3 0 111.2 0C74 0 37 0 18.5 0L0 0Z" fill="#0ea5e9"></path><path d="M0 148L18.5 145.3C37 142.7 74 137.3 111.2 135.5C148.3 133.7 185.7 135.3 222.8 133C260 130.7 297 124.3 334 135.8C371 147.3 408 176.7 445 186.7C482 196.7 519 187.3 556.2 182.3C593.3 177.3 630.7 176.7 667.8 173.5C705 170.3 742 164.7 779 161.3C816 158 853 157 871.5 156.5L890 156L890 0L871.5 0C853 0 816 0 779 0C742 0 705 0 667.8 0C630.7 0 593.3 0 556.2 0C519 0 482 0 445 0C408 0 371 0 334 0C297 0 260 0 222.8 0C185.7 0 148.3 0 111.2 0C74 0 37 0 18.5 0L0 0Z" fill="#0093f0"></path><path d="M0 134L18.5 125.5C37 117 74 100 111.2 99C148.3 98 185.7 113 222.8 116.7C260 120.3 297 112.7 334 107.3C371 102 408 99 445 101.2C482 103.3 519 110.7 556.2 107C593.3 103.3 630.7 88.7 667.8 89.2C705 89.7 742 105.3 779 117.3C816 129.3 853 137.7 871.5 141.8L890 146L890 0L871.5 0C853 0 816 0 779 0C742 0 705 0 667.8 0C630.7 0 593.3 0 556.2 0C519 0 482 0 445 0C408 0 371 0 334 0C297 0 260 0 222.8 0C185.7 0 148.3 0 111.2 0C74 0 37 0 18.5 0L0 0Z" fill="#007df0"></path><path d="M0 68L18.5 72.7C37 77.3 74 86.7 111.2 82.7C148.3 78.7 185.7 61.3 222.8 57.7C260 54 297 64 334 63C371 62 408 50 445 46.3C482 42.7 519 47.3 556.2 57.7C593.3 68 630.7 84 667.8 88.5C705 93 742 86 779 84.7C816 83.3 853 87.7 871.5 89.8L890 92L890 0L871.5 0C853 0 816 0 779 0C742 0 705 0 667.8 0C630.7 0 593.3 0 556.2 0C519 0 482 0 445 0C408 0 371 0 334 0C297 0 260 0 222.8 0C185.7 0 148.3 0 111.2 0C74 0 37 0 18.5 0L0 0Z" fill="#2563eb"></path></svg>